<svg width="24" height="24" viewBox="0 0 24 24" fill="none" xmlns="http://www.w3.org/2000/svg">
<path fill-rule="evenodd" clip-rule="evenodd" d="M12.5 0C9.27834 0 6.66667 2.68629 6.66667 6C6.66667 9.31371 9.27834 12 12.5 12C15.7217 12 18.3333 9.31371 18.3333 6C18.3333 2.68629 15.7217 0 12.5 0ZM9 6C9 4.01178 10.567 2.4 12.5 2.4C14.433 2.4 16 4.01178 16 6C16 7.98822 14.433 9.6 12.5 9.6C10.567 9.6 9 7.98822 9 6Z" fill="#FEFFFF"/>
<path d="M7.83333 14.4C6.28624 14.4 4.80251 15.0321 3.70854 16.1574C2.61458 17.2826 2 18.8087 2 20.4V22.8C2 23.4627 2.52233 24 3.16667 24C3.811 24 4.33333 23.4627 4.33333 22.8V20.4C4.33333 19.4452 4.70208 18.5295 5.35846 17.8544C6.01484 17.1793 6.90508 16.8 7.83333 16.8H17.1667C18.0949 16.8 18.9852 17.1793 19.6415 17.8544C20.2979 18.5295 20.6667 19.4452 20.6667 20.4V22.8C20.6667 23.4627 21.189 24 21.8333 24C22.4777 24 23 23.4627 23 22.8V20.4C23 18.8087 22.3854 17.2826 21.2915 16.1574C20.1975 15.0321 18.7138 14.4 17.1667 14.4H7.83333Z" fill="#FEFFFF"/>
</svg>
