<svg width="24" height="24" viewBox="0 0 24 24" fill="none" xmlns="http://www.w3.org/2000/svg">
<path fill-rule="evenodd" clip-rule="evenodd" d="M17.8099 2.16389C16.7208 1.8914 15.5744 1.95994 14.5256 2.36025C13.4768 2.76055 12.5762 3.47331 11.9457 4.40211C11.3221 5.32071 10.9924 6.40681 10.9998 7.51647C9.7425 7.42198 8.51256 7.08197 7.38071 6.51227C5.95775 5.79605 4.734 4.73902 3.81846 3.43534L3.0001 4.01006L2.10568 3.56284C2.09773 3.57874 2.09023 3.59479 2.08319 3.61097L2.08023 3.61772L2.06866 3.64465C2.0592 3.6669 2.04631 3.69771 2.03054 3.73664C1.99901 3.81447 1.95587 3.92494 1.90538 4.06459C1.80452 4.34356 1.67368 4.74083 1.54758 5.22842C1.29658 6.19895 1.05781 7.55234 1.12613 9.05546C1.19466 10.563 1.57353 12.2417 2.57716 13.8264C3.32952 15.0143 4.41169 16.1155 5.91484 17.043C4.39647 17.7425 2.72666 18.0779 1.03985 18.0108C0.577127 17.9924 0.162301 18.2941 0.0372519 18.74C-0.0877967 19.1859 0.109649 19.6593 0.51446 19.8842C5.29097 22.5378 10.651 22.5626 14.845 20.3303C19.0632 18.0851 22.0001 13.61 22.0001 7.51006L22.0001 7.50675C21.9996 7.34449 21.9918 7.18243 21.977 7.02103C22.9426 5.94962 23.6292 4.6532 23.9717 3.24667L23.0001 3.01006L22.4237 2.19289C21.7152 2.69263 20.9449 3.09664 20.1327 3.39516C19.4724 2.80461 18.6759 2.38058 17.8099 2.16389ZM3.12407 8.96465C3.07437 7.87129 3.22106 6.85503 3.40475 6.05366C4.29735 6.96254 5.33595 7.72213 6.48152 8.29873C8.19909 9.16325 10.1038 9.58956 12.026 9.53972C12.568 9.52567 13.0001 9.08224 13.0001 8.54006V7.54006L13 7.52665C12.9905 6.81382 13.2001 6.11526 13.6005 5.52543C14.0009 4.93561 14.5727 4.48298 15.2388 4.22877C15.9048 3.97456 16.6328 3.93103 17.3244 4.10408C18.016 4.27712 18.6377 4.65838 19.1055 5.19629C19.3637 5.49309 19.7718 5.611 20.1484 5.49759C20.3801 5.42784 20.6093 5.35111 20.8358 5.26756C20.647 5.51422 20.4407 5.74836 20.2179 5.96805C19.9803 6.20243 19.8752 6.53995 19.9379 6.86781C19.9785 7.08007 19.9993 7.29563 20.0001 7.51172C19.9996 12.9109 17.4366 16.6852 13.9053 18.5648C11.3071 19.9477 8.13037 20.3334 4.9602 19.5257C6.2343 19.1589 7.4508 18.5915 8.56173 17.8374C8.86216 17.6335 9.02844 17.2828 8.99614 16.9211C8.96384 16.5594 8.73804 16.2437 8.40624 16.0962C6.31614 15.1673 5.04039 13.9777 4.2668 12.7563C3.48918 11.5284 3.18055 10.2072 3.12407 8.96465Z" fill="white"/>
</svg>
